<?xml version="1.0" encoding="UTF-8"?>
<svg width="39px" height="32px" viewBox="0 0 39 32" version="1.1" xmlns="http://www.w3.org/2000/svg" xmlns:xlink="http://www.w3.org/1999/xlink">
    <!-- Generator: Sketch 44 (41411) - http://www.bohemiancoding.com/sketch -->
    <title>“</title>
    <desc>Created with Sketch.</desc>
    <defs></defs>
    <g id="home-v-2" stroke="none" stroke-width="1" fill="none" fill-rule="evenodd">
        <g id="Home" transform="translate(-810.000000, -300.000000)" fill="#EEF0F3">
            <g id="quote" transform="translate(810.000000, 298.000000)">
                <path d="M28.4912109,10.1333008 C26.6643789,12.4168408 25.7509766,14.7301315 25.7509766,17.0732422 C25.7509766,18.0660857 25.870116,18.9199183 26.1083984,19.6347656 C27.4983793,18.5624946 29.0074788,18.0263672 30.6357422,18.0263672 C32.8597116,18.0263672 34.7163011,18.7312755 36.2055664,20.1411133 C37.6948317,21.5509511 38.4394531,23.4472537 38.4394531,25.8300781 C38.4394531,28.0540476 37.6849034,29.9106371 36.1757812,31.3999023 C34.6666591,32.8891676 32.8199979,33.6337891 30.6357422,33.6337891 C27.4983567,33.6337891 25.0957115,32.3431119 23.4277344,29.7617188 C22.0377535,27.6171768 21.3427734,24.9365395 21.3427734,21.7197266 C21.3427734,17.6292113 22.3852435,13.9656737 24.4702148,10.7290039 C26.5551862,7.49233408 29.7024529,4.88119482 33.9121094,2.89550781 L35.0439453,5.09960938 C32.5022659,6.17188036 30.318043,7.84976072 28.4912109,10.1333008 Z M7.76074219,10.1333008 C5.93391014,12.4168408 5.02050781,14.7301315 5.02050781,17.0732422 C5.02050781,18.0660857 5.13964725,18.9199183 5.37792969,19.6347656 C6.72819686,18.5624946 8.23729635,18.0263672 9.90527344,18.0263672 C12.0895292,18.0263672 13.9361904,18.7312755 15.4453125,20.1411133 C16.9544346,21.5509511 17.7089844,23.4472537 17.7089844,25.8300781 C17.7089844,27.2994865 17.3515661,28.6298769 16.6367188,29.8212891 C15.9218714,31.0127013 14.968756,31.9459602 13.7773438,32.6210938 C12.5859315,33.2962273 11.2952543,33.6337891 9.90527344,33.6337891 C6.76788796,33.6337891 4.36524271,32.3431119 2.69726562,29.7617188 C1.30728472,27.6171768 0.612304688,24.9365395 0.612304688,21.7197266 C0.612304688,17.6292113 1.65477473,13.9656737 3.73974609,10.7290039 C5.82471746,7.49233408 8.97198416,4.88119482 13.1816406,2.89550781 L14.3134766,5.09960938 C11.7717972,6.17188036 9.58757424,7.84976072 7.76074219,10.1333008 Z" id="“"></path>
            </g>
        </g>
    </g>
</svg>